<?xml version="1.0" encoding="UTF-8" standalone="no"?>
<!DOCTYPE svg PUBLIC "-//W3C//DTD SVG 1.1//EN" "http://www.w3.org/Graphics/SVG/1.1/DTD/svg11.dtd">
<svg width="100%" height="100%" viewBox="0 0 234 127" version="1.1" xmlns="http://www.w3.org/2000/svg" xmlns:xlink="http://www.w3.org/1999/xlink" xml:space="preserve" xmlns:serif="http://www.serif.com/" style="fill-rule:evenodd;clip-rule:evenodd;stroke-linejoin:round;stroke-miterlimit:2;">
    <g transform="matrix(1,0,0,1,-135.466,-158.851)">
        <g transform="matrix(0.1,0,0,-0.1,0,460)">
            <path d="M2543,2793C2522,2785 2528,2742 2550,2735C2579,2726 2610,2738 2610,2759C2610,2791 2578,2808 2543,2793Z" style="fill-rule:nonzero;"/>
            <path d="M2533,2710C2508,2700 2502,2664 2523,2657C2531,2655 2535,2631 2535,2584L2535,2515L2571,2512C2594,2510 2611,2514 2619,2524C2634,2542 2626,2560 2603,2560C2593,2560 2590,2565 2595,2578C2598,2587 2604,2617 2607,2644C2612,2684 2610,2695 2595,2706C2574,2722 2564,2722 2533,2710Z" style="fill-rule:nonzero;"/>
            <path d="M2768,2713C2759,2710 2744,2690 2736,2667C2727,2644 2722,2637 2725,2652C2733,2694 2722,2710 2684,2710C2643,2710 2630,2688 2655,2660C2669,2645 2671,2631 2666,2600C2653,2518 2690,2478 2745,2514C2773,2533 2769,2565 2739,2557C2714,2550 2715,2560 2743,2601C2760,2625 2772,2634 2788,2632C2807,2629 2810,2633 2810,2668C2810,2708 2800,2720 2768,2713Z" style="fill-rule:nonzero;"/>
            <path d="M2896,2275C2884,2263 2883,2254 2890,2239C2903,2216 2943,2214 2961,2236C2990,2271 2929,2307 2896,2275Z" style="fill-rule:nonzero;"/>
            <path d="M3253,2280C3204,2260 3240,2209 3290,2225C3314,2233 3317,2275 3294,2284C3285,2287 3278,2290 3277,2289C3276,2289 3265,2285 3253,2280Z" style="fill-rule:nonzero;"/>
            <path d="M2762,2238C2756,2232 2750,2218 2750,2208C2750,2198 2743,2190 2735,2190C2727,2190 2720,2181 2720,2170C2720,2159 2725,2150 2730,2150C2736,2150 2740,2126 2740,2098C2740,2025 2749,2001 2775,1994C2806,1986 2862,2016 2858,2038C2855,2049 2845,2054 2830,2053C2806,2052 2805,2055 2809,2096C2811,2125 2817,2140 2826,2140C2842,2140 2863,2176 2855,2190C2852,2196 2843,2200 2835,2200C2828,2200 2820,2210 2818,2223C2815,2248 2782,2258 2762,2238Z" style="fill-rule:nonzero;"/>
            <path d="M3382,2238C3376,2232 3370,2220 3370,2213C3370,2205 3363,2197 3355,2194C3338,2187 3334,2150 3350,2150C3356,2150 3360,2122 3360,2086C3360,1995 3386,1972 3451,2006C3490,2026 3487,2056 3446,2053C3425,2051 3420,2055 3424,2066C3427,2075 3430,2095 3430,2111C3430,2130 3435,2140 3445,2140C3462,2140 3484,2176 3475,2190C3472,2196 3463,2200 3455,2200C3448,2200 3440,2210 3438,2223C3435,2248 3402,2258 3382,2238Z" style="fill-rule:nonzero;"/>
            <path d="M2588,2199C2559,2188 2530,2136 2530,2095C2530,2061 2555,2013 2579,2000C2626,1976 2700,2000 2700,2040C2700,2057 2695,2059 2656,2054C2614,2048 2611,2049 2605,2073C2596,2109 2608,2140 2631,2140C2644,2140 2650,2133 2650,2119C2650,2104 2655,2099 2672,2102C2699,2106 2717,2167 2696,2188C2679,2205 2621,2212 2588,2199Z" style="fill-rule:nonzero;"/>
            <path d="M2893,2200C2869,2190 2862,2154 2882,2148C2890,2145 2894,2119 2895,2075C2895,1994 2912,1975 2957,2000C2992,2020 2998,2040 2970,2047C2957,2051 2951,2058 2954,2067C2958,2075 2963,2106 2966,2135C2972,2182 2970,2189 2952,2199C2928,2212 2923,2212 2893,2200Z" style="fill-rule:nonzero;"/>
            <path d="M3012,2194C2986,2176 2984,2158 3005,2140C3013,2133 3027,2102 3037,2071C3058,2002 3066,1990 3095,1990C3126,1990 3174,2049 3190,2106C3212,2183 3185,2223 3126,2201C3097,2189 3091,2156 3116,2146C3129,2141 3131,2132 3125,2102C3116,2054 3100,2036 3100,2076C3100,2136 3068,2210 3042,2210C3038,2210 3024,2203 3012,2194Z" style="fill-rule:nonzero;"/>
            <path d="M3233,2198C3206,2185 3202,2150 3226,2150C3241,2150 3242,2141 3237,2086C3229,2004 3242,1982 3291,1996C3330,2007 3343,2039 3312,2047C3295,2051 3293,2056 3301,2083C3317,2138 3312,2188 3291,2200C3267,2212 3262,2212 3233,2198Z" style="fill-rule:nonzero;"/>
            <path d="M3508,2199C3489,2188 3483,2144 3500,2138C3506,2136 3521,2108 3535,2075L3559,2015L3534,2002C3500,1984 3504,1940 3541,1923C3579,1904 3630,1923 3630,1956C3630,1975 3625,1980 3604,1980C3577,1980 3577,1980 3611,2003C3677,2046 3716,2175 3671,2200C3658,2206 3643,2207 3627,2201C3593,2188 3587,2175 3605,2157C3621,2141 3624,2098 3611,2066C3606,2053 3601,2066 3592,2111C3584,2154 3574,2181 3559,2193C3535,2213 3531,2213 3508,2199Z" style="fill-rule:nonzero;"/>
        </g>
        <g transform="matrix(0.1,0,0,-0.1,0,460)">
            <path d="M1905,2977C1783,2894 1675,2727 1564,2451L1548,2410L1496,2416C1430,2424 1390,2409 1390,2376C1390,2362 1400,2343 1415,2332C1445,2308 1446,2300 1421,2300C1409,2300 1401,2291 1398,2275C1392,2246 1396,2240 1424,2240C1473,2239 1473,2230 1419,2069C1369,1919 1347,1799 1367,1787C1384,1776 1420,1810 1451,1866C1468,1896 1486,1920 1491,1920C1503,1920 1502,1912 1485,1862C1468,1815 1470,1805 1498,1798C1514,1793 1528,1821 1597,1989C1640,2097 1680,2184 1686,2184C1691,2183 1711,2179 1730,2176L1765,2170L1730,2185L1695,2199L1735,2193C1757,2190 1816,2177 1865,2164C1915,2151 1972,2140 1993,2140C2013,2140 2030,2136 2030,2131C2030,2118 2147,2100 2173,2109C2193,2117 2191,2119 2155,2129C2133,2135 2104,2140 2090,2141C2076,2141 2071,2144 2078,2147C2086,2150 2119,2147 2153,2140C2212,2129 2215,2129 2229,2150C2243,2170 2245,2166 2280,2068C2318,1962 2368,1855 2376,1862C2378,1865 2373,1886 2365,1910C2357,1934 2352,1955 2354,1957C2356,1959 2370,1925 2385,1881C2406,1818 2418,1796 2446,1775C2491,1741 2504,1750 2495,1809C2491,1834 2487,1873 2486,1895C2485,1917 2481,1946 2477,1960C2473,1974 2480,1965 2492,1940C2511,1901 2514,1898 2518,1918C2520,1931 2505,1983 2485,2033C2464,2084 2415,2224 2375,2345C2293,2594 2246,2706 2157,2866L2096,2978L2045,2989C2018,2995 1986,3003 1975,3006C1962,3009 1936,2998 1905,2977ZM2060,2678C2134,2520 2222,2296 2211,2292C2205,2290 2207,2275 2216,2254C2228,2225 2228,2220 2216,2220C2208,2220 2200,2225 2198,2231C2196,2237 2176,2246 2155,2251L2115,2259L2158,2256C2181,2254 2200,2256 2200,2261C2200,2271 2151,2284 2030,2305C1932,2322 1750,2376 1750,2389C1750,2392 1776,2447 1807,2510C1838,2573 1863,2629 1862,2633C1858,2647 1919,2743 1953,2776C1993,2815 1996,2812 2060,2678ZM2460,2025C2460,2020 2455,2022 2450,2030C2445,2038 2440,2050 2440,2055C2440,2061 2445,2058 2450,2050C2455,2042 2460,2031 2460,2025ZM2349,1980C2349,1970 2346,1972 2340,1985C2328,2012 2328,2028 2340,2010C2345,2002 2349,1988 2349,1980Z" style="fill:rgb(199,13,13);fill-rule:nonzero;stroke:rgb(169,2,2);stroke-width:10px;"/>
        </g>
        <g transform="matrix(0.1,0,0,-0.1,0,460)">
            <path d="M1969,2773C1956,2757 1957,2756 1973,2769C1982,2776 1990,2784 1990,2786C1990,2794 1982,2789 1969,2773Z" style="fill-rule:nonzero;"/>
        </g>
        <g transform="matrix(0.1,0,0,-0.1,0,460)">
            <path d="M3300,2730C3198,2670 3098,2611 3076,2600C3055,2588 3041,2575 3046,2570C3051,2565 3084,2551 3120,2538L3184,2515L3205,2448C3217,2411 3229,2378 3232,2374C3235,2371 3253,2389 3272,2414C3308,2463 3325,2468 3371,2444C3429,2415 3431,2419 3467,2615C3501,2803 3505,2840 3493,2839C3488,2839 3402,2790 3300,2730ZM3444,2613C3430,2526 3416,2454 3415,2452C3414,2451 3383,2462 3347,2477C3304,2495 3282,2510 3285,2518C3292,2537 3464,2778 3468,2775C3470,2773 3459,2700 3444,2613ZM3295,2650L3185,2540L3131,2558L3077,2576L3116,2600C3137,2613 3174,2634 3198,2647C3222,2660 3274,2691 3313,2715C3353,2739 3389,2759 3395,2759C3400,2760 3355,2710 3295,2650ZM3383,2698C3312,2604 3251,2507 3243,2475L3234,2435L3218,2480L3202,2525L3293,2618C3377,2703 3407,2729 3383,2698ZM3280,2459C3273,2448 3266,2441 3263,2444C3255,2452 3268,2480 3280,2480C3287,2480 3287,2474 3280,2459Z" style="fill:rgb(41,78,110);fill-rule:nonzero;stroke:rgb(41,78,110);stroke-width:10px;"/>
            <path d="M2780,2461C2780,2450 2819,2435 2827,2444C2835,2452 2830,2456 2803,2464C2790,2468 2780,2467 2780,2461Z" style="fill:rgb(41,78,110);fill-rule:nonzero;stroke:rgb(41,78,110);stroke-width:10px;"/>
            <path d="M2715,2440C2701,2424 2700,2420 2711,2420C2727,2420 2750,2439 2750,2452C2750,2466 2734,2461 2715,2440Z" style="fill:rgb(41,78,110);fill-rule:nonzero;stroke:rgb(41,78,110);stroke-width:10px;"/>
            <path d="M2860,2421C2860,2408 2889,2386 2897,2393C2904,2401 2882,2430 2869,2430C2864,2430 2860,2426 2860,2421Z" style="fill:rgb(41,78,110);fill-rule:nonzero;stroke:rgb(41,78,110);stroke-width:10px;"/>
            <path d="M2656,2374C2641,2335 2660,2332 2680,2371C2688,2386 2687,2390 2676,2390C2669,2390 2659,2383 2656,2374Z" style="fill:rgb(41,78,110);fill-rule:nonzero;stroke:rgb(41,78,110);stroke-width:10px;"/>
            <path d="M2920,2372C2920,2367 2931,2358 2945,2352C2971,2340 2978,2348 2958,2368C2944,2382 2920,2384 2920,2372Z" style="fill:rgb(41,78,110);fill-rule:nonzero;stroke:rgb(41,78,110);stroke-width:10px;"/>
            <path d="M3130,2350C3122,2345 3119,2338 3122,2334C3132,2325 3160,2337 3160,2350C3160,2362 3150,2363 3130,2350Z" style="fill:rgb(41,78,110);fill-rule:nonzero;stroke:rgb(41,78,110);stroke-width:10px;"/>
            <path d="M3010,2330C3010,2325 3021,2320 3035,2320C3049,2320 3060,2325 3060,2330C3060,2336 3049,2340 3035,2340C3021,2340 3010,2336 3010,2330Z" style="fill:rgb(41,78,110);fill-rule:nonzero;stroke:rgb(41,78,110);stroke-width:10px;"/>
        </g>
    </g>
</svg>
